<svg width="66" height="67" viewBox="0 0 66 67" fill="none" xmlns="http://www.w3.org/2000/svg">
<path d="M33 0C14.7727 0 0 14.9965 0 33.5C0 52.0035 14.7727 67 33 67C51.2273 67 66 52.0035 66 33.5C66 14.9965 51.2273 0 33 0ZM33 6.7C47.5535 6.7 59.4 18.726 59.4 33.5C59.4 35.0703 59.2453 36.6145 58.9875 38.1063C58.1754 37.923 56.9766 37.7006 55.5844 37.6875C54.5531 37.6744 53.2641 37.8445 52.1812 38.0016C52.5551 36.8369 52.8 35.5545 52.8 34.2328C52.8 31.0137 51.2531 28.017 48.7781 25.5437C49.4613 22.9658 50.1316 18.5428 48.3656 16.75C43.1449 16.75 40.2574 20.5318 40.1156 20.7281C38.5043 20.3355 36.8414 20.1 35.0625 20.1C32.7809 20.1 30.6023 20.5187 28.5656 21.1469L29.1844 20.6234C29.1844 20.6234 26.284 16.5406 20.9344 16.5406C19.0652 18.4512 19.916 23.293 20.625 25.7531C18.0984 28.2002 16.5 31.0922 16.5 34.2328C16.5 35.332 16.7578 36.3789 17.0156 37.3734C16.1004 37.2687 12.8004 36.9547 11.4469 36.9547C10.248 36.9547 8.3918 37.2426 6.90937 37.5828C6.70312 36.248 6.6 34.8871 6.6 33.5C6.6 18.726 18.4465 6.7 33 6.7ZM11.4469 37.7922C12.7488 37.7922 16.7062 38.2633 17.2219 38.3156C17.2863 38.4988 17.3508 38.6689 17.4281 38.8391C16.0102 38.7082 13.2645 38.5119 11.4469 38.7344C10.2352 38.8783 8.68828 39.3232 7.32188 39.6766C7.21875 39.2578 7.08985 38.8521 7.0125 38.4203C8.45625 38.1063 10.3512 37.7922 11.4469 37.7922ZM55.5844 38.525C56.8992 38.5381 58.098 38.7605 58.8844 38.9437C58.8457 39.1662 58.7297 39.3494 58.6781 39.5719C57.8402 39.3756 56.4609 39.0877 54.8625 39.0484C54.0891 39.0354 52.8516 39.0746 51.7687 39.1531C51.8203 39.0484 51.8332 38.9437 51.8719 38.8391C52.9934 38.682 54.4242 38.5119 55.5844 38.525ZM13.5094 39.4672C15.3656 39.4803 17.1059 39.6111 17.8406 39.6766C19.568 42.948 23.0613 45.3689 28.4625 46.3766C27.1348 47.1225 25.9488 48.1693 25.0594 49.4125C24.2859 49.4779 23.4738 49.5172 22.6875 49.5172C20.393 49.5172 18.9621 47.4365 17.7375 45.6437C16.5 43.851 14.9789 43.6547 14.1281 43.55C13.2645 43.4453 12.968 43.9426 13.4062 44.2828C15.9199 46.2457 16.8223 48.575 17.8406 50.6687C18.7559 52.5531 20.6766 53.6 22.7906 53.6H23.2031C23.1387 53.9664 23.1 54.3066 23.1 54.6469V58.3109C15.4816 55.1834 9.68086 48.575 7.52812 40.4094C8.88164 40.0691 10.4027 39.7158 11.55 39.5719C12.0785 39.5064 12.7488 39.4541 13.5094 39.4672ZM54.8625 39.8859C56.3449 39.9252 57.6598 40.2131 58.4719 40.4094C56.6543 47.3449 52.1684 53.1158 46.2 56.6359V54.6469C46.2 51.7941 43.9828 48.1301 40.8375 46.3766C46.0582 45.4082 49.4613 43.092 51.2531 39.9906C52.5035 39.899 53.973 39.8598 54.8625 39.8859ZM34.65 53.6C35.5523 53.6 36.3 54.359 36.3 55.275V60.0906C35.2172 60.2346 34.1215 60.3 33 60.3V55.275C33 54.359 33.7477 53.6 34.65 53.6ZM28.05 56.95C28.9523 56.95 29.7 57.709 29.7 58.625V60.0906C28.5914 59.9467 27.4699 59.7373 26.4 59.4625V58.625C26.4 57.709 27.1477 56.95 28.05 56.95ZM41.25 56.95C42.0492 56.95 42.7453 57.5389 42.9 58.3109C41.8301 58.7559 40.7344 59.1615 39.6 59.4625V58.625C39.6 57.709 40.3477 56.95 41.25 56.95Z" fill="white"/>
</svg>
