<svg width="67" height="67" viewBox="0 0 67 67" fill="none" xmlns="http://www.w3.org/2000/svg">
<path d="M33.5131 0L0.0130903 22.1152L0 44.8848L33.4869 67L66.9869 44.8848L67 22.1152L33.5131 0ZM33.5131 40.2L23.4592 33.5L33.5131 26.8L43.567 33.5L33.5131 40.2ZM36.8644 20.9768V10.2463L57.7577 24.0389L49.602 29.4695L36.8644 20.9768ZM30.1618 20.9768L17.4111 29.4695L9.26846 24.0389L30.1618 10.2463V20.9768ZM11.3761 33.5L6.70262 36.6145L6.71571 30.3986L11.3761 33.5ZM17.4111 37.5305L30.1618 46.0232V56.7668L9.25537 42.9611L17.4111 37.5305ZM36.8644 46.0232L49.602 37.5305L57.7446 42.948L36.8513 56.7406V46.0232H36.8644ZM55.6501 33.5L60.2974 30.3986L60.2843 36.5883L55.6501 33.5Z" fill="white"/>
</svg>
