<svg width="66" height="67" viewBox="0 0 66 67" fill="none" xmlns="http://www.w3.org/2000/svg">
<path d="M33 0C14.7741 0 0 14.998 0 33.5C0 52.002 14.7741 67 33 67C51.2259 67 66 52.002 66 33.5C66 14.998 51.2259 0 33 0ZM51.1995 46.9H46.8798C45.243 46.9 44.7249 45.2551 41.8704 41.875C39.3954 38.9437 38.115 38.525 37.4847 38.525C36.6003 38.525 36.3 38.7461 36.3 40.0894V45.0676C36.3 46.1831 36.0162 46.9 33.2475 46.9C28.677 46.9 23.5125 43.7577 19.5954 38.3139C14.19 30.8066 13.2 24.2775 13.2 23.0714C13.2 22.4014 13.4079 21.775 14.6685 21.775H19.0278C20.1201 21.775 20.5392 22.2675 20.9583 23.5639C22.8954 30.15 25.7829 35.175 27.2514 35.175C27.7959 35.175 28.05 34.907 28.05 33.433V27.3628C27.8817 24.2339 26.4 23.9659 26.4 22.847C26.4 22.3076 26.7498 21.775 27.423 21.775H35.0922C36.0162 21.775 36.3 22.311 36.3 23.4734V32.16C36.3 33.1416 37.0392 33.5 37.3296 33.5C37.8741 33.5 38.3856 33.5268 39.3921 32.4515C42.4941 28.7397 45.1869 23.115 45.1869 23.115C45.4839 22.445 45.9855 21.775 47.0778 21.775H51.3975C52.3644 21.775 52.7736 22.2138 52.8 22.8235C52.8099 23.0346 52.7736 23.2691 52.6977 23.5203C52.1532 26.2003 46.5696 34.1599 46.6125 34.1599C46.3749 34.572 46.2165 34.8668 46.2 35.1783C46.1835 35.4732 46.3023 35.7813 46.6125 36.2169C47.0712 36.8868 48.0744 38.1197 49.0875 39.3658C50.919 41.6137 52.3875 43.9721 52.7076 44.9369C52.7769 45.1982 52.8066 45.4361 52.8 45.6471C52.7769 46.4712 52.1994 46.9 51.1995 46.9Z" fill="white"/>
</svg>
