<svg width="68" height="53" viewBox="0 0 68 53" fill="none" xmlns="http://www.w3.org/2000/svg">
<path d="M66.5788 7.24112C65.7968 4.39237 63.4916 2.1465 60.5676 1.38463C55.2636 6.91041e-07 34 0 34 0C34 0 12.7364 6.91041e-07 7.4324 1.38463C4.5084 2.1465 2.2032 4.39237 1.4212 7.24112C-1.01328e-07 12.4086 0 26.5 0 26.5C0 26.5 -1.01328e-07 40.5914 1.4212 45.7589C2.2032 48.6076 4.5084 50.8535 7.4324 51.6154C12.7364 53 34 53 34 53C34 53 55.2636 53 60.5676 51.6154C63.495 50.8535 65.7968 48.6076 66.5788 45.7589C68 40.5914 68 26.5 68 26.5C68 26.5 68 12.4086 66.5788 7.24112ZM27.2 37.9745V15.0255L47.6 26.5L27.2 37.9745Z" fill="white"/>
</svg>
