<svg width="59" height="60" viewBox="0 0 59 60" fill="none" xmlns="http://www.w3.org/2000/svg">
<path d="M9.83333 0C4.44149 0 0 4.51677 0 10V50C0 55.4832 4.44149 60 9.83333 60H49.1667C54.5585 60 59 55.4832 59 50V10C59 4.51677 54.5585 0 49.1667 0H9.83333ZM29.5 13.3333H36.0556C36.0556 16.6833 40.8772 20 42.6111 20V26.6667C40.6281 26.6667 38.2451 25.7805 36.0556 24.2839V36.6667C36.0556 42.18 31.6437 46.6667 26.2222 46.6667C20.8008 46.6667 16.3889 42.18 16.3889 36.6667C16.3889 31.1533 20.8008 26.6667 26.2222 26.6667V33.3333C24.4129 33.3333 22.9444 34.83 22.9444 36.6667C22.9444 38.5033 24.4129 40 26.2222 40C28.0316 40 29.5 38.5033 29.5 36.6667V13.3333Z" fill="white"/>
</svg>
