<svg width="66" height="61" viewBox="0 0 66 61" fill="none" xmlns="http://www.w3.org/2000/svg">
<path d="M60.3939 0.00554853C59.4402 0.0481061 58.5649 0.329487 57.7961 0.640356C57.0858 0.92732 54.535 2.02711 50.4733 3.77472C46.4116 5.52233 41.0294 7.83945 35.2926 10.3146C23.819 15.2648 10.9255 20.8332 4.31891 23.6852C4.09204 23.7822 3.17065 24.0715 2.15301 24.8689C1.13301 25.668 0 27.4025 0 29.2993C0 30.8294 0.744621 32.3878 1.64377 33.2801C2.54291 34.1723 3.45417 34.5894 4.21578 34.9001V34.8935C6.7902 35.9457 14.4783 39.1015 16.3087 39.853C16.958 41.8489 19.7454 50.3937 20.4085 52.5425H20.402C20.8707 54.0634 21.3276 55.0545 21.962 55.8819C22.2792 56.2955 22.6578 56.6704 23.1223 56.9663C23.3005 57.0799 23.4978 57.168 23.696 57.2507C23.7236 57.2627 23.7521 57.2657 23.7798 57.2771L23.7025 57.2573C23.7599 57.281 23.8115 57.3159 23.8701 57.3366C23.9655 57.3703 24.0316 57.3692 24.1601 57.3961C24.6123 57.5388 25.0637 57.6342 25.4816 57.6342C27.2757 57.6342 28.3759 56.6357 28.3759 56.6357L28.4468 56.5828L36.1951 49.8578L45.6838 58.8641C45.8571 59.1152 47.2149 61 50.3572 61C52.2323 61 53.7148 60.0479 54.6633 59.0493C55.6117 58.0507 56.2026 57.0288 56.4682 55.6438L56.4746 55.6372C56.6864 54.5193 65.77 7.72904 65.77 7.72904L65.7506 7.80839C66.0333 6.51391 66.1168 5.26206 65.7828 3.98632C65.4489 2.71059 64.5476 1.46561 63.4622 0.812284C62.3769 0.15896 61.3476 -0.0370103 60.3939 0.00554853ZM59.0918 7.41825C58.7328 9.26691 50.5958 51.2015 50.0929 53.832L36.3885 40.825L27.1254 48.8593L29.6909 38.5701C29.6909 38.5701 47.3896 20.1924 48.4556 19.1225C49.3137 18.266 49.4935 17.9657 49.4935 17.6678C49.4935 17.2716 49.2947 16.9867 48.8359 16.9867C48.4234 16.9867 47.8631 17.3922 47.5661 17.5818C43.7915 19.9958 27.7149 29.394 19.809 34.0074C19.3332 33.8117 12.1901 30.8693 8.3413 29.2927C15.1873 26.337 26.9224 21.2722 37.8517 16.5568C43.5876 14.0821 48.9681 11.7629 53.0259 10.017C56.4513 8.5432 58.2381 7.78009 59.0918 7.41825ZM49.9963 54.3147H50.0027C50.0026 54.3155 49.9966 54.3335 49.9963 54.3345C50.0005 54.3126 49.9931 54.3318 49.9963 54.3147Z" fill="white"/>
</svg>
