<svg width="67" height="67" viewBox="0 0 67 67" fill="none" xmlns="http://www.w3.org/2000/svg">
<path d="M6.7 0C3.00977 0 0 3.00977 0 6.7V60.3C0 63.9902 3.00977 67 6.7 67H60.3C63.9902 67 67 63.9902 67 60.3V6.7C67 3.00977 63.9902 0 60.3 0H6.7ZM34.3375 6.7C37.7137 6.7 41.7703 9.98457 41.7703 25.6484C41.7703 31.2492 40.1346 39.585 36.9547 46.2719C38.3418 48.1562 39.6635 48.9937 40.6187 48.9937C41.9143 48.732 44.8193 43.5631 46.3766 38.6297C46.8084 37.2687 48.1955 36.5229 49.5172 36.9547C50.865 37.3473 51.5848 38.8783 51.1922 40.2C49.8705 44.4006 46.1803 54.1234 40.6187 54.1234C38.8652 54.1234 36.5883 53.2729 34.3375 50.9828C31.7857 54.5553 28.5535 56.95 24.8109 56.95C16.8939 56.95 13.4 49.7396 13.4 43.55C13.4 36.9678 16.7631 30.7781 24.0781 30.7781C25.3082 30.7781 26.4336 31.0398 27.4281 31.4062C27.2973 29.5219 27.2188 27.4805 27.2188 25.3344C27.2188 25.1381 27.2188 6.7 34.3375 6.7ZM34.5469 12.1437C33.4869 14.002 32.2437 19.5111 32.2437 25.3344C32.2437 31.6287 32.9635 36.4836 34.0234 40.0953C35.6461 35.4629 36.7453 30.1762 36.7453 25.6484C36.7453 17.1033 35.3451 13.3346 34.5469 12.1437ZM23.1359 35.9078C18.6082 36.8107 18.5297 44.152 18.5297 44.4922C18.5297 46.7037 19.0793 51.8203 24.8109 51.8203C27.0225 51.8203 29.2732 49.7266 31.1969 46.4812C30.0322 44.2305 28.9592 41.4432 28.2656 37.8969C28.0955 37.7922 27.9516 37.609 27.8469 37.4781C27.8469 37.4781 26.2242 35.9078 24.0781 35.9078C23.7379 35.9078 23.4369 35.8424 23.1359 35.9078Z" fill="white"/>
</svg>
